<svg width="88" height="35" viewBox="0 0 88 35" fill="none" xmlns="http://www.w3.org/2000/svg">
<path d="M0.736 35V0.247998H14.368C20.128 0.247998 24.784 2.072 28 5.24C31.216 8.408 32.992 12.632 32.992 17.624C32.992 22.328 31.408 26.648 28.192 29.864C24.976 33.08 20.416 35 14.416 35H0.736ZM14.272 26.648C16.864 26.648 18.976 25.736 20.608 24.152C22.24 22.568 23.104 20.216 23.104 17.624C23.104 15.032 22.24 12.68 20.608 11.096C18.976 9.512 16.864 8.6 14.272 8.6H10.624V26.648H14.272ZM39.991 35V0.247998H49.879V35H39.991ZM66.838 35V8.6H55.798V0.247998H87.766V8.6H76.726V35H66.838Z" fill="#232324"/>
</svg>
